<svg xmlns="http://www.w3.org/2000/svg" viewBox="0 0 1640 624" width="1640" height="624">
  <defs>
    <linearGradient id="g" x1="0" y1="0" x2="1" y2="1"><stop offset="0" stop-color="#2F6BFF"/><stop offset="1" stop-color="#7B5CFF"/></linearGradient>
    <linearGradient id="gt" x1="0" y1="0" x2="1" y2="0"><stop offset="0" stop-color="#2F6BFF"/><stop offset="1" stop-color="#7B5CFF"/></linearGradient>
    <filter id="glow" x="-30%" y="-30%" width="160%" height="160%"><feGaussianBlur stdDeviation="4" result="b"/><feMerge><feMergeNode in="b"/><feMergeNode in="SourceGraphic"/></feMerge></filter>
    <pattern id="dots" width="32" height="32" patternUnits="userSpaceOnUse"><circle cx="2" cy="2" r="2" fill="#DCE3F5"/></pattern>
  </defs>
  <rect width="1640" height="624" fill="#F4F7FF"/>
  <rect width="1640" height="624" fill="url(#dots)"/>

  <!-- circuit traces: left -->
  <g fill="none" stroke="#C9D4F2" stroke-width="6" stroke-linecap="round" stroke-linejoin="round">
    <path d="M0 120H120L170 170H250"/>
    <path d="M0 470H90L140 420H200"/>
    <path d="M60 624V560L110 510"/>
    <!-- right -->
    <path d="M1640 140H1520L1470 190H1400"/>
    <path d="M1640 430H1560L1510 480H1430"/>
    <path d="M1580 0V60L1530 110"/>
  </g>
  <g fill="#F4F7FF" stroke-width="6">
    <circle cx="250" cy="170" r="12" stroke="#2F6BFF"/>
    <circle cx="200" cy="420" r="12" stroke="#7B5CFF"/>
    <circle cx="110" cy="510" r="10" stroke="#C9D4F2"/>
    <circle cx="1400" cy="190" r="12" stroke="#7B5CFF"/>
    <circle cx="1430" cy="480" r="12" stroke="#2F6BFF"/>
    <circle cx="1530" cy="110" r="10" stroke="#C9D4F2"/>
  </g>
  <!-- playful accents -->
  <circle cx="1335" cy="120" r="9" fill="#FF3DCB"/>
  <path d="M300 470l7 18 18 7 -18 7 -7 18 -7 -18 -18 -7 18 -7Z" fill="#FFB020"/>
  <path d="M1360 520l5 13 13 5 -13 5 -5 13 -5 -13 -13 -5 13 -5Z" fill="#2F6BFF" opacity=".55"/>

  <!-- logo mark (variant 6) -->
  <g filter="url(#glow)" transform="translate(236 70) scale(.46)">
    <path d="M300 250H724a90 90 0 0 1 90 90V600a90 90 0 0 1 -90 90H470l-110 90v-90H300a90 90 0 0 1 -90 -90V340a90 90 0 0 1 90 -90Z" fill="none" stroke="url(#g)" stroke-width="30" stroke-linejoin="round"/>
    <path d="M330 590L420 360L510 590" fill="none" stroke="#0B1020" stroke-width="40" stroke-linecap="round" stroke-linejoin="round"/>
    <circle cx="420" cy="505" r="22" fill="#FF3DCB"/>
    <rect x="580" y="360" width="56" height="230" rx="12" fill="#2F6BFF"/>
    <path d="M720 330l12 30 30 12 -30 12 -12 30 -12 -30 -30 -12 30 -12Z" fill="#FFB020"/>
  </g>

  <!-- wordmark + tagline -->
  <text x="650" y="318" font-family="Inter, 'DejaVu Sans', sans-serif" font-weight="800" font-size="124" letter-spacing="-2" fill="#0B1020"><tspan fill="url(#gt)">AI</tspan> Solution</text>
  <text x="656" y="392" font-family="'DejaVu Sans Mono', monospace" font-size="28" fill="#4A5578"><tspan fill="#2F6BFF">&gt;</tspan> Giải pháp AI · đơn giản · thông minh<tspan fill="#2F6BFF">▍</tspan></text>
</svg>
